<?xml version="1.0" standalone="no"?>
<!DOCTYPE svg PUBLIC "-//W3C//DTD SVG 20010904//EN"
 "http://www.w3.org/TR/2001/REC-SVG-20010904/DTD/svg10.dtd">
<svg version="1.0" xmlns="http://www.w3.org/2000/svg"
 width="209.000000pt" height="70.000000pt" viewBox="0 0 209.000000 70.000000"
 preserveAspectRatio="xMidYMid meet">
<metadata>
Created by potrace 1.13, written by Peter Selinger 2001-2015
</metadata>
<g transform="translate(0.000000,70.000000) scale(0.100000,-0.100000)"
fill="#000000" stroke="none">
<path d="M256 614 c-11 -28 -6 -84 9 -114 22 -42 53 -60 106 -60 84 0 140 74
118 155 -10 37 -29 48 -29 17 0 -33 -38 -57 -90 -57 -52 0 -90 24 -90 57 0 22
-16 24 -24 2z"/>
<path d="M822 417 c-22 -23 -28 -62 -14 -83 4 -7 37 -26 74 -43 65 -31 67 -33
71 -74 l4 -42 1 47 c1 26 7 49 15 51 7 3 5 6 -5 6 -9 1 -29 6 -43 13 l-25 11
22 24 c27 29 29 81 3 99 -29 22 -79 17 -103 -9z"/>
<path d="M270 356 c32 -52 68 -169 82 -262 7 -46 14 -82 16 -79 2 2 6 25 9 51
8 77 41 193 73 257 16 33 30 62 30 64 0 1 -18 3 -41 3 -38 0 -42 -2 -56 -40
l-16 -40 -18 40 c-17 37 -21 40 -59 40 l-42 0 22 -34z"/>
</g>
</svg>
